<mxfile host="app.diagrams.net" modified="2022-04-25T13:35:07.230Z" agent="5.0 (X11)" etag="F30LY3etJm6c7gcC_Spa" version="17.4.6" type="github">
  <diagram id="VJGHAaBp5tEj5jNFr9uY" name="Page-1">
    <mxGraphModel dx="1350" dy="764" grid="1" gridSize="10" guides="1" tooltips="1" connect="1" arrows="1" fold="1" page="1" pageScale="1" pageWidth="850" pageHeight="1100" math="0" shadow="0">
      <root>
        <mxCell id="0" />
        <mxCell id="1" parent="0" />
        <mxCell id="VvutQgffA3wiXfEy-1R5-1" value="Store" style="swimlane;fontStyle=1;align=center;verticalAlign=top;childLayout=stackLayout;horizontal=1;startSize=26;horizontalStack=0;resizeParent=1;resizeParentMax=0;resizeLast=0;collapsible=1;marginBottom=0;" vertex="1" parent="1">
          <mxGeometry x="333" y="60" width="185" height="130" as="geometry" />
        </mxCell>
        <mxCell id="VvutQgffA3wiXfEy-1R5-2" value="- monthlyIncom : BigDecimal&#xa;- product : List&lt;Product&gt;&#xa;" style="text;strokeColor=none;fillColor=none;align=left;verticalAlign=top;spacingLeft=4;spacingRight=4;overflow=hidden;rotatable=0;points=[[0,0.5],[1,0.5]];portConstraint=eastwest;" vertex="1" parent="VvutQgffA3wiXfEy-1R5-1">
          <mxGeometry y="26" width="185" height="44" as="geometry" />
        </mxCell>
        <mxCell id="VvutQgffA3wiXfEy-1R5-3" value="" style="line;strokeWidth=1;fillColor=none;align=left;verticalAlign=middle;spacingTop=-1;spacingLeft=3;spacingRight=3;rotatable=0;labelPosition=right;points=[];portConstraint=eastwest;" vertex="1" parent="VvutQgffA3wiXfEy-1R5-1">
          <mxGeometry y="70" width="185" height="8" as="geometry" />
        </mxCell>
        <mxCell id="VvutQgffA3wiXfEy-1R5-4" value="+ rent(Product, Costumer) : void&#xa;+ sell(Product) : void&#xa;+ reduceRentDaysOfAll() : void&#xa;" style="text;strokeColor=none;fillColor=none;align=left;verticalAlign=top;spacingLeft=4;spacingRight=4;overflow=hidden;rotatable=0;points=[[0,0.5],[1,0.5]];portConstraint=eastwest;" vertex="1" parent="VvutQgffA3wiXfEy-1R5-1">
          <mxGeometry y="78" width="185" height="52" as="geometry" />
        </mxCell>
        <mxCell id="VvutQgffA3wiXfEy-1R5-17" value="Product" style="swimlane;fontStyle=3;align=center;verticalAlign=top;childLayout=stackLayout;horizontal=1;startSize=30;horizontalStack=0;resizeParent=1;resizeParentMax=0;resizeLast=0;collapsible=1;marginBottom=0;" vertex="1" parent="1">
          <mxGeometry x="328" y="230" width="195" height="220" as="geometry" />
        </mxCell>
        <mxCell id="VvutQgffA3wiXfEy-1R5-18" value="- title : String&#xa;- relaseDate : int&#xa;- retalCost : BigDecimal&#xa;- originalPrice : BigDecimal&#xa;- rentDaysLeft : int&#xa;- purchasable : boolean&#xa;- customer : Customer&#xa;- platform : Platform&#xa;&#xa;" style="text;strokeColor=none;fillColor=none;align=left;verticalAlign=top;spacingLeft=4;spacingRight=4;overflow=hidden;rotatable=0;points=[[0,0.5],[1,0.5]];portConstraint=eastwest;" vertex="1" parent="VvutQgffA3wiXfEy-1R5-17">
          <mxGeometry y="30" width="195" height="120" as="geometry" />
        </mxCell>
        <mxCell id="VvutQgffA3wiXfEy-1R5-19" value="" style="line;strokeWidth=1;fillColor=none;align=left;verticalAlign=middle;spacingTop=-1;spacingLeft=3;spacingRight=3;rotatable=0;labelPosition=right;points=[];portConstraint=eastwest;" vertex="1" parent="VvutQgffA3wiXfEy-1R5-17">
          <mxGeometry y="150" width="195" height="8" as="geometry" />
        </mxCell>
        <mxCell id="VvutQgffA3wiXfEy-1R5-20" value="+ rent(int : days) : BigDecimnal&#xa;+ sell() : BigDe3cimal&#xa;+ reduceRentDays() : void&#xa;" style="text;strokeColor=none;fillColor=none;align=left;verticalAlign=top;spacingLeft=4;spacingRight=4;overflow=hidden;rotatable=0;points=[[0,0.5],[1,0.5]];portConstraint=eastwest;" vertex="1" parent="VvutQgffA3wiXfEy-1R5-17">
          <mxGeometry y="158" width="195" height="62" as="geometry" />
        </mxCell>
        <mxCell id="VvutQgffA3wiXfEy-1R5-22" value="" style="endArrow=diamondThin;endFill=1;endSize=24;html=1;rounded=0;" edge="1" parent="1" source="VvutQgffA3wiXfEy-1R5-17" target="VvutQgffA3wiXfEy-1R5-1">
          <mxGeometry width="160" relative="1" as="geometry">
            <mxPoint x="340" y="300" as="sourcePoint" />
            <mxPoint x="500" y="300" as="targetPoint" />
          </mxGeometry>
        </mxCell>
        <mxCell id="VvutQgffA3wiXfEy-1R5-23" value="Movie" style="swimlane;fontStyle=1;align=center;verticalAlign=top;childLayout=stackLayout;horizontal=1;startSize=26;horizontalStack=0;resizeParent=1;resizeParentMax=0;resizeLast=0;collapsible=1;marginBottom=0;" vertex="1" parent="1">
          <mxGeometry x="60" y="530" width="160" height="86" as="geometry" />
        </mxCell>
        <mxCell id="VvutQgffA3wiXfEy-1R5-24" value="-----------" style="text;strokeColor=none;fillColor=none;align=left;verticalAlign=top;spacingLeft=4;spacingRight=4;overflow=hidden;rotatable=0;points=[[0,0.5],[1,0.5]];portConstraint=eastwest;" vertex="1" parent="VvutQgffA3wiXfEy-1R5-23">
          <mxGeometry y="26" width="160" height="26" as="geometry" />
        </mxCell>
        <mxCell id="VvutQgffA3wiXfEy-1R5-25" value="" style="line;strokeWidth=1;fillColor=none;align=left;verticalAlign=middle;spacingTop=-1;spacingLeft=3;spacingRight=3;rotatable=0;labelPosition=right;points=[];portConstraint=eastwest;" vertex="1" parent="VvutQgffA3wiXfEy-1R5-23">
          <mxGeometry y="52" width="160" height="8" as="geometry" />
        </mxCell>
        <mxCell id="VvutQgffA3wiXfEy-1R5-26" value="------------" style="text;strokeColor=none;fillColor=none;align=left;verticalAlign=top;spacingLeft=4;spacingRight=4;overflow=hidden;rotatable=0;points=[[0,0.5],[1,0.5]];portConstraint=eastwest;" vertex="1" parent="VvutQgffA3wiXfEy-1R5-23">
          <mxGeometry y="60" width="160" height="26" as="geometry" />
        </mxCell>
        <mxCell id="VvutQgffA3wiXfEy-1R5-27" value="TVShows" style="swimlane;fontStyle=1;align=center;verticalAlign=top;childLayout=stackLayout;horizontal=1;startSize=26;horizontalStack=0;resizeParent=1;resizeParentMax=0;resizeLast=0;collapsible=1;marginBottom=0;" vertex="1" parent="1">
          <mxGeometry x="260" y="530" width="160" height="86" as="geometry" />
        </mxCell>
        <mxCell id="VvutQgffA3wiXfEy-1R5-28" value="-----------" style="text;strokeColor=none;fillColor=none;align=left;verticalAlign=top;spacingLeft=4;spacingRight=4;overflow=hidden;rotatable=0;points=[[0,0.5],[1,0.5]];portConstraint=eastwest;" vertex="1" parent="VvutQgffA3wiXfEy-1R5-27">
          <mxGeometry y="26" width="160" height="26" as="geometry" />
        </mxCell>
        <mxCell id="VvutQgffA3wiXfEy-1R5-29" value="" style="line;strokeWidth=1;fillColor=none;align=left;verticalAlign=middle;spacingTop=-1;spacingLeft=3;spacingRight=3;rotatable=0;labelPosition=right;points=[];portConstraint=eastwest;" vertex="1" parent="VvutQgffA3wiXfEy-1R5-27">
          <mxGeometry y="52" width="160" height="8" as="geometry" />
        </mxCell>
        <mxCell id="VvutQgffA3wiXfEy-1R5-30" value="------------" style="text;strokeColor=none;fillColor=none;align=left;verticalAlign=top;spacingLeft=4;spacingRight=4;overflow=hidden;rotatable=0;points=[[0,0.5],[1,0.5]];portConstraint=eastwest;" vertex="1" parent="VvutQgffA3wiXfEy-1R5-27">
          <mxGeometry y="60" width="160" height="26" as="geometry" />
        </mxCell>
        <mxCell id="VvutQgffA3wiXfEy-1R5-31" value="Music" style="swimlane;fontStyle=1;align=center;verticalAlign=top;childLayout=stackLayout;horizontal=1;startSize=26;horizontalStack=0;resizeParent=1;resizeParentMax=0;resizeLast=0;collapsible=1;marginBottom=0;" vertex="1" parent="1">
          <mxGeometry x="460" y="530" width="160" height="86" as="geometry" />
        </mxCell>
        <mxCell id="VvutQgffA3wiXfEy-1R5-32" value="-----------" style="text;strokeColor=none;fillColor=none;align=left;verticalAlign=top;spacingLeft=4;spacingRight=4;overflow=hidden;rotatable=0;points=[[0,0.5],[1,0.5]];portConstraint=eastwest;" vertex="1" parent="VvutQgffA3wiXfEy-1R5-31">
          <mxGeometry y="26" width="160" height="26" as="geometry" />
        </mxCell>
        <mxCell id="VvutQgffA3wiXfEy-1R5-33" value="" style="line;strokeWidth=1;fillColor=none;align=left;verticalAlign=middle;spacingTop=-1;spacingLeft=3;spacingRight=3;rotatable=0;labelPosition=right;points=[];portConstraint=eastwest;" vertex="1" parent="VvutQgffA3wiXfEy-1R5-31">
          <mxGeometry y="52" width="160" height="8" as="geometry" />
        </mxCell>
        <mxCell id="VvutQgffA3wiXfEy-1R5-34" value="----------" style="text;strokeColor=none;fillColor=none;align=left;verticalAlign=top;spacingLeft=4;spacingRight=4;overflow=hidden;rotatable=0;points=[[0,0.5],[1,0.5]];portConstraint=eastwest;" vertex="1" parent="VvutQgffA3wiXfEy-1R5-31">
          <mxGeometry y="60" width="160" height="26" as="geometry" />
        </mxCell>
        <mxCell id="VvutQgffA3wiXfEy-1R5-35" value="VideoGmae" style="swimlane;fontStyle=1;align=center;verticalAlign=top;childLayout=stackLayout;horizontal=1;startSize=26;horizontalStack=0;resizeParent=1;resizeParentMax=0;resizeLast=0;collapsible=1;marginBottom=0;" vertex="1" parent="1">
          <mxGeometry x="660" y="530" width="160" height="86" as="geometry" />
        </mxCell>
        <mxCell id="VvutQgffA3wiXfEy-1R5-36" value="-------------" style="text;strokeColor=none;fillColor=none;align=left;verticalAlign=top;spacingLeft=4;spacingRight=4;overflow=hidden;rotatable=0;points=[[0,0.5],[1,0.5]];portConstraint=eastwest;" vertex="1" parent="VvutQgffA3wiXfEy-1R5-35">
          <mxGeometry y="26" width="160" height="26" as="geometry" />
        </mxCell>
        <mxCell id="VvutQgffA3wiXfEy-1R5-37" value="" style="line;strokeWidth=1;fillColor=none;align=left;verticalAlign=middle;spacingTop=-1;spacingLeft=3;spacingRight=3;rotatable=0;labelPosition=right;points=[];portConstraint=eastwest;" vertex="1" parent="VvutQgffA3wiXfEy-1R5-35">
          <mxGeometry y="52" width="160" height="8" as="geometry" />
        </mxCell>
        <mxCell id="VvutQgffA3wiXfEy-1R5-38" value="-------------" style="text;strokeColor=none;fillColor=none;align=left;verticalAlign=top;spacingLeft=4;spacingRight=4;overflow=hidden;rotatable=0;points=[[0,0.5],[1,0.5]];portConstraint=eastwest;" vertex="1" parent="VvutQgffA3wiXfEy-1R5-35">
          <mxGeometry y="60" width="160" height="26" as="geometry" />
        </mxCell>
        <mxCell id="VvutQgffA3wiXfEy-1R5-39" value="Costumer" style="swimlane;fontStyle=1;align=center;verticalAlign=top;childLayout=stackLayout;horizontal=1;startSize=26;horizontalStack=0;resizeParent=1;resizeParentMax=0;resizeLast=0;collapsible=1;marginBottom=0;" vertex="1" parent="1">
          <mxGeometry x="50" y="297" width="160" height="86" as="geometry" />
        </mxCell>
        <mxCell id="VvutQgffA3wiXfEy-1R5-40" value="- Name : String" style="text;strokeColor=none;fillColor=none;align=left;verticalAlign=top;spacingLeft=4;spacingRight=4;overflow=hidden;rotatable=0;points=[[0,0.5],[1,0.5]];portConstraint=eastwest;" vertex="1" parent="VvutQgffA3wiXfEy-1R5-39">
          <mxGeometry y="26" width="160" height="26" as="geometry" />
        </mxCell>
        <mxCell id="VvutQgffA3wiXfEy-1R5-41" value="" style="line;strokeWidth=1;fillColor=none;align=left;verticalAlign=middle;spacingTop=-1;spacingLeft=3;spacingRight=3;rotatable=0;labelPosition=right;points=[];portConstraint=eastwest;" vertex="1" parent="VvutQgffA3wiXfEy-1R5-39">
          <mxGeometry y="52" width="160" height="8" as="geometry" />
        </mxCell>
        <mxCell id="VvutQgffA3wiXfEy-1R5-42" value="-----------" style="text;strokeColor=none;fillColor=none;align=left;verticalAlign=top;spacingLeft=4;spacingRight=4;overflow=hidden;rotatable=0;points=[[0,0.5],[1,0.5]];portConstraint=eastwest;" vertex="1" parent="VvutQgffA3wiXfEy-1R5-39">
          <mxGeometry y="60" width="160" height="26" as="geometry" />
        </mxCell>
        <mxCell id="VvutQgffA3wiXfEy-1R5-43" value="" style="endArrow=diamondThin;endFill=0;endSize=24;html=1;rounded=0;" edge="1" parent="1" source="VvutQgffA3wiXfEy-1R5-39" target="VvutQgffA3wiXfEy-1R5-17">
          <mxGeometry width="160" relative="1" as="geometry">
            <mxPoint x="340" y="300" as="sourcePoint" />
            <mxPoint x="290" y="390" as="targetPoint" />
          </mxGeometry>
        </mxCell>
        <mxCell id="VvutQgffA3wiXfEy-1R5-44" value="&lt;&lt;Enum&gt;&gt;&#xa;Platform&#xa;" style="swimlane;fontStyle=1;align=center;verticalAlign=top;childLayout=stackLayout;horizontal=1;startSize=40;horizontalStack=0;resizeParent=1;resizeParentMax=0;resizeLast=0;collapsible=1;marginBottom=0;" vertex="1" parent="1">
          <mxGeometry x="610" y="290" width="230" height="100" as="geometry" />
        </mxCell>
        <mxCell id="VvutQgffA3wiXfEy-1R5-45" value="- relaseDate : int" style="text;strokeColor=none;fillColor=none;align=left;verticalAlign=top;spacingLeft=4;spacingRight=4;overflow=hidden;rotatable=0;points=[[0,0.5],[1,0.5]];portConstraint=eastwest;" vertex="1" parent="VvutQgffA3wiXfEy-1R5-44">
          <mxGeometry y="40" width="230" height="26" as="geometry" />
        </mxCell>
        <mxCell id="VvutQgffA3wiXfEy-1R5-46" value="" style="line;strokeWidth=1;fillColor=none;align=left;verticalAlign=middle;spacingTop=-1;spacingLeft=3;spacingRight=3;rotatable=0;labelPosition=right;points=[];portConstraint=eastwest;" vertex="1" parent="VvutQgffA3wiXfEy-1R5-44">
          <mxGeometry y="66" width="230" height="8" as="geometry" />
        </mxCell>
        <mxCell id="VvutQgffA3wiXfEy-1R5-47" value="+ getPlatforByDate(int:  date) : Platform" style="text;strokeColor=none;fillColor=none;align=left;verticalAlign=top;spacingLeft=4;spacingRight=4;overflow=hidden;rotatable=0;points=[[0,0.5],[1,0.5]];portConstraint=eastwest;" vertex="1" parent="VvutQgffA3wiXfEy-1R5-44">
          <mxGeometry y="74" width="230" height="26" as="geometry" />
        </mxCell>
        <mxCell id="VvutQgffA3wiXfEy-1R5-48" value="" style="endArrow=block;endSize=16;endFill=0;html=1;rounded=0;" edge="1" parent="1" source="VvutQgffA3wiXfEy-1R5-23" target="VvutQgffA3wiXfEy-1R5-17">
          <mxGeometry width="160" relative="1" as="geometry">
            <mxPoint x="140" y="400" as="sourcePoint" />
            <mxPoint x="300" y="400" as="targetPoint" />
          </mxGeometry>
        </mxCell>
        <mxCell id="VvutQgffA3wiXfEy-1R5-49" value="" style="endArrow=block;endSize=16;endFill=0;html=1;rounded=0;" edge="1" parent="1" source="VvutQgffA3wiXfEy-1R5-27" target="VvutQgffA3wiXfEy-1R5-17">
          <mxGeometry width="160" relative="1" as="geometry">
            <mxPoint x="570" y="370" as="sourcePoint" />
            <mxPoint x="730" y="370" as="targetPoint" />
          </mxGeometry>
        </mxCell>
        <mxCell id="VvutQgffA3wiXfEy-1R5-50" value="" style="endArrow=block;endSize=16;endFill=0;html=1;rounded=0;" edge="1" parent="1" source="VvutQgffA3wiXfEy-1R5-31" target="VvutQgffA3wiXfEy-1R5-17">
          <mxGeometry width="160" relative="1" as="geometry">
            <mxPoint x="640" y="420" as="sourcePoint" />
            <mxPoint x="800" y="420" as="targetPoint" />
          </mxGeometry>
        </mxCell>
        <mxCell id="VvutQgffA3wiXfEy-1R5-51" value="" style="endArrow=block;endSize=16;endFill=0;html=1;rounded=0;" edge="1" parent="1" source="VvutQgffA3wiXfEy-1R5-35" target="VvutQgffA3wiXfEy-1R5-17">
          <mxGeometry width="160" relative="1" as="geometry">
            <mxPoint x="610" y="384" as="sourcePoint" />
            <mxPoint x="770" y="384" as="targetPoint" />
          </mxGeometry>
        </mxCell>
        <mxCell id="VvutQgffA3wiXfEy-1R5-54" value="" style="endArrow=diamondThin;endFill=1;endSize=24;html=1;rounded=0;" edge="1" parent="1" source="VvutQgffA3wiXfEy-1R5-44" target="VvutQgffA3wiXfEy-1R5-17">
          <mxGeometry width="160" relative="1" as="geometry">
            <mxPoint x="523" y="160" as="sourcePoint" />
            <mxPoint x="683" y="160" as="targetPoint" />
          </mxGeometry>
        </mxCell>
      </root>
    </mxGraphModel>
  </diagram>
</mxfile>
